<svg xmlns="http://www.w3.org/2000/svg" width="1900" height="1150" viewBox="0 0 1900 1150" role="img" aria-labelledby="title desc">
<title id="title">Planche de publication — Framework Mímir</title><desc id="desc">Diagramme vectoriel éditable généré depuis les dumps du framework.</desc>
<defs>
<marker id="arrow" markerWidth="12" markerHeight="12" refX="10" refY="6" orient="auto" markerUnits="strokeWidth"><path d="M2,2 L10,6 L2,10 z" fill="#475569"/></marker>
<marker id="arrowBlue" markerWidth="12" markerHeight="12" refX="10" refY="6" orient="auto" markerUnits="strokeWidth"><path d="M2,2 L10,6 L2,10 z" fill="#2563eb"/></marker>
<style><![CDATA[text{font-family:Inter,Segoe UI,Arial,sans-serif}.title{font-size:34px;font-weight:800;fill:#0f172a}.subtitle{font-size:16px;fill:#475569}.label{font-size:17px;font-weight:700;fill:#0f172a}.small{font-size:13px;fill:#475569}.tiny{font-size:11px;fill:#64748b}.box{stroke:#94a3b8;stroke-width:1.4;rx:14}.edge{stroke:#475569;stroke-width:2.2;fill:none;marker-end:url(#arrow)}.edgeB{stroke:#2563eb;stroke-width:2.4;fill:none;marker-end:url(#arrowBlue)}.dash{stroke-dasharray:7 7}.note{font-size:12px;fill:#475569}]]></style>
</defs>
<rect width="100%" height="100%" fill="#f8fafc"/>
<text x="60" y="62" class="title" text-anchor="start">Planche de publication — Framework Mímir</text>
<text x="60" y="92" class="subtitle" text-anchor="start">Résumé visuel compact : surface utilisateur, registre, runtime, mémoire, modèles et formats.</text>
<line x1="60" y1="112" x2="1840" y2="112" stroke="#e2e8f0" stroke-width="2"/>
<rect x="760" y="150" width="380" height="80" rx="14" fill="#e2e8f0" stroke="#94a3b8" stroke-width="1.6"/>
<text x="950.0" y="175" class="label" text-anchor="middle">Mímir Framework</text>
<text x="950.0" y="202" class="small" text-anchor="middle">C++ CPU-first AI runtime</text>
<rect x="250" y="300" width="260" height="70" rx="14" fill="#dbeafe" stroke="#94a3b8" stroke-width="1.6"/>
<text x="380.0" y="325" class="label" text-anchor="middle">CLI</text>
<text x="380.0" y="342" class="small" text-anchor="middle">mimir --lua</text>
<path d="M380,300 L950,230" class="edgeB"/>
<rect x="610" y="300" width="260" height="70" rx="14" fill="#ede9fe" stroke="#94a3b8" stroke-width="1.6"/>
<text x="740.0" y="325" class="label" text-anchor="middle">Lua</text>
<text x="740.0" y="342" class="small" text-anchor="middle">scripts</text>
<path d="M740,300 L950,230" class="edgeB"/>
<rect x="970" y="300" width="260" height="70" rx="14" fill="#d1fae5" stroke="#94a3b8" stroke-width="1.6"/>
<text x="1100.0" y="325" class="label" text-anchor="middle">JSON</text>
<text x="1100.0" y="342" class="small" text-anchor="middle">configs</text>
<path d="M1100,300 L950,230" class="edgeB"/>
<rect x="1330" y="300" width="260" height="70" rx="14" fill="#cffafe" stroke="#94a3b8" stroke-width="1.6"/>
<text x="1460.0" y="325" class="label" text-anchor="middle">C++ API</text>
<text x="1460.0" y="342" class="small" text-anchor="middle">embedding</text>
<path d="M1460,300 L950,230" class="edgeB"/>
<rect x="230" y="470" width="360" height="90" rx="14" fill="#d1fae5" stroke="#94a3b8" stroke-width="1.6"/>
<text x="410.0" y="495" class="label" text-anchor="middle">Architecture Registry</text>
<text x="410.0" y="532" class="small" text-anchor="middle">24+ architectures</text>
<path d="M950,230 L410,470" class="edgeB"/>
<rect x="730" y="470" width="360" height="90" rx="14" fill="#ffedd5" stroke="#94a3b8" stroke-width="1.6"/>
<text x="910.0" y="495" class="label" text-anchor="middle">Graph Runtime</text>
<text x="910.0" y="532" class="small" text-anchor="middle">forward/backward/planner</text>
<path d="M950,230 L910,470" class="edgeB"/>
<rect x="1230" y="470" width="360" height="90" rx="14" fill="#fef3c7" stroke="#94a3b8" stroke-width="1.6"/>
<text x="1410.0" y="495" class="label" text-anchor="middle">Memory Manager</text>
<text x="1410.0" y="532" class="small" text-anchor="middle">allocator/guard</text>
<path d="M950,230 L1410,470" class="edgeB"/>
<rect x="100" y="690" width="235" height="78" rx="14" fill="#ede9fe" stroke="#94a3b8" stroke-width="1.6"/>
<text x="217.5" y="715" class="label" text-anchor="middle">VAEConv</text>
<text x="217.5" y="740" class="small" text-anchor="middle">48 L • 311.1 k</text>
<path d="M410,560 L218,690" class="edgeB dash"/>
<rect x="395" y="690" width="235" height="78" rx="14" fill="#dbeafe" stroke="#94a3b8" stroke-width="1.6"/>
<text x="512.5" y="715" class="label" text-anchor="middle">UNet</text>
<text x="512.5" y="740" class="small" text-anchor="middle">43 L • 2.14 M</text>
<path d="M410,560 L513,690" class="edgeB dash"/>
<rect x="690" y="690" width="235" height="78" rx="14" fill="#ede9fe" stroke="#94a3b8" stroke-width="1.6"/>
<text x="807.5" y="715" class="label" text-anchor="middle">Diffusion</text>
<text x="807.5" y="740" class="small" text-anchor="middle">4 L • 50.61 M</text>
<path d="M410,560 L808,690" class="edgeB dash"/>
<rect x="985" y="690" width="235" height="78" rx="14" fill="#dbeafe" stroke="#94a3b8" stroke-width="1.6"/>
<text x="1102.5" y="715" class="label" text-anchor="middle">SD3.5</text>
<text x="1102.5" y="740" class="small" text-anchor="middle">25 L • 132.5 k</text>
<path d="M410,560 L1103,690" class="edgeB dash"/>
<rect x="1280" y="690" width="235" height="78" rx="14" fill="#ede9fe" stroke="#94a3b8" stroke-width="1.6"/>
<text x="1397.5" y="715" class="label" text-anchor="middle">VGG16</text>
<text x="1397.5" y="740" class="small" text-anchor="middle">41 L • 5.70 M</text>
<path d="M410,560 L1398,690" class="edgeB dash"/>
<rect x="1575" y="690" width="235" height="78" rx="14" fill="#dbeafe" stroke="#94a3b8" stroke-width="1.6"/>
<text x="1692.5" y="715" class="label" text-anchor="middle">VGG19</text>
<text x="1692.5" y="740" class="small" text-anchor="middle">47 L • 7.02 M</text>
<path d="M410,560 L1693,690" class="edgeB dash"/>
<rect x="420" y="880" width="300" height="80" rx="14" fill="#fef3c7" stroke="#94a3b8" stroke-width="1.6"/>
<text x="570.0" y="905" class="label" text-anchor="middle">Checkpoints</text>
<text x="570.0" y="932" class="small" text-anchor="middle">json/folder/st</text>
<path d="M950,780 L570,880" class="edgeB"/>
<rect x="800" y="880" width="300" height="80" rx="14" fill="#e2e8f0" stroke="#94a3b8" stroke-width="1.6"/>
<text x="950.0" y="905" class="label" text-anchor="middle">Reports</text>
<text x="950.0" y="932" class="small" text-anchor="middle">tables/stats</text>
<path d="M950,780 L950,880" class="edgeB"/>
<rect x="1180" y="880" width="300" height="80" rx="14" fill="#d1fae5" stroke="#94a3b8" stroke-width="1.6"/>
<text x="1330.0" y="905" class="label" text-anchor="middle">SVG Graphs</text>
<text x="1330.0" y="932" class="small" text-anchor="middle">publication-ready</text>
<path d="M950,780 L1330,880" class="edgeB"/>
<text x="1840" y="1126" class="tiny" text-anchor="end">Mímir Framework — SVG vectoriel éditable</text>
</svg>